<?xml version="1.0" standalone="no"?>
<!DOCTYPE svg PUBLIC "-//W3C//DTD SVG 20010904//EN"
 "http://www.w3.org/TR/2001/REC-SVG-20010904/DTD/svg10.dtd">
<svg version="1.0" xmlns="http://www.w3.org/2000/svg"
 width="160.000000pt" height="160.000000pt" viewBox="0 0 160.000000 160.000000"
 preserveAspectRatio="xMidYMid meet">
<metadata>
Created by potrace 1.11, written by Peter Selinger 2001-2013
</metadata>
<g transform="translate(0.000000,160.000000) scale(0.100000,-0.100000)"
fill="#000000" stroke="none">
<path d="M203 840 c-1 -184 2 -355 5 -379 l7 -45 292 -169 293 -169 292 169
293 169 8 54 c4 29 6 200 4 379 l-2 326 -3 -340 -3 -340 -287 -165 c-158 -91
-294 -165 -302 -165 -8 0 -144 74 -302 165 l-287 165 -3 340 -3 340 -2 -335z"/>
</g>
</svg>
